<svg width="36" height="36" viewBox="0 0 36 36" fill="none" xmlns="http://www.w3.org/2000/svg">
<path d="M28.4384 8.33774H20.7188V0.617432L28.4384 8.33774Z" fill="url(#paint0_linear_197_51996)"/>
<path d="M19.6636 10.447C19.0814 10.447 18.6089 9.97453 18.6089 9.39234V0H1.05469C0.4725 0 0 0.4725 0 1.05469V34.9453C0 35.5275 0.4725 36 1.05469 36H21.9002C19.5293 34.1592 18.0007 31.282 18.0007 28.0554C18.0007 22.5113 22.5113 18.0007 28.0554 18.0007C28.3929 18.0007 28.7262 18.0176 29.0552 18.0499V10.447H19.6636ZM11.2226 24.0469H5.27344C4.69125 24.0469 4.21875 23.5744 4.21875 22.9922C4.21875 22.41 4.69125 21.9375 5.27344 21.9375H11.2226C11.8055 21.9375 12.2773 22.41 12.2773 22.9922C12.2773 23.5744 11.8055 24.0469 11.2226 24.0469ZM16.1789 19.125H5.27344C4.69125 19.125 4.21875 18.6525 4.21875 18.0703C4.21875 17.4881 4.69125 17.0156 5.27344 17.0156H16.1789C16.7611 17.0156 17.2336 17.4881 17.2336 18.0703C17.2336 18.6525 16.7611 19.125 16.1789 19.125ZM16.1789 14.2031H5.27344C4.69125 14.2031 4.21875 13.7306 4.21875 13.1484C4.21875 12.5663 4.69125 12.0938 5.27344 12.0938H16.1789C16.7611 12.0938 17.2336 12.5663 17.2336 13.1484C17.2336 13.7306 16.7611 14.2031 16.1789 14.2031Z" fill="url(#paint1_linear_197_51996)"/>
<path d="M28.054 20.1101C23.6728 20.1101 20.1094 23.6735 20.1094 28.0547C20.1094 32.4359 23.6728 36 28.054 36C32.4352 36 35.9993 32.4359 35.9993 28.0547C35.9993 23.6735 32.4352 20.1101 28.054 20.1101ZM32.1462 26.6513L27.8473 30.9502C27.6412 31.1562 27.3712 31.2596 27.1012 31.2596C26.8312 31.2596 26.5612 31.1562 26.3559 30.9502L23.9618 28.5567C23.5505 28.1454 23.5505 27.4774 23.9618 27.0654C24.3738 26.6534 25.0418 26.6534 25.4538 27.0654L27.1012 28.7135L28.2839 27.5309L30.6548 25.1599C31.0669 24.7479 31.7341 24.7479 32.1462 25.1599C32.5582 25.572 32.5582 26.2392 32.1462 26.6513Z" fill="url(#paint2_linear_197_51996)"/>
<defs>
<linearGradient id="paint0_linear_197_51996" x1="20.7188" y1="8.33774" x2="28.4391" y2="0.618135" gradientUnits="userSpaceOnUse">
<stop stop-color="#43CEA2"/>
<stop offset="1" stop-color="#185A9D"/>
</linearGradient>
<linearGradient id="paint1_linear_197_51996" x1="0" y1="36" x2="35.1887" y2="7.59953" gradientUnits="userSpaceOnUse">
<stop stop-color="#43CEA2"/>
<stop offset="1" stop-color="#185A9D"/>
</linearGradient>
<linearGradient id="paint2_linear_197_51996" x1="20.1094" y1="36" x2="35.9993" y2="20.1101" gradientUnits="userSpaceOnUse">
<stop stop-color="#43CEA2"/>
<stop offset="1" stop-color="#185A9D"/>
</linearGradient>
</defs>
</svg>
