<svg width="38" height="38" viewBox="0 0 38 38" fill="none" xmlns="http://www.w3.org/2000/svg">
<g clip-path="url(#clip0_197_51984)">
<path d="M5.54793 24.3495C5.33281 24.7786 5.41659 25.2973 5.75551 25.6365L6.02774 25.9087C6.81428 24.9766 7.731 23.9651 8.84283 22.8535C8.9214 22.775 9.00228 22.737 9.08114 22.6645L7.32975 20.9128C6.31157 22.7544 5.71782 24.0126 5.54793 24.3495Z" fill="url(#paint0_linear_197_51984)"/>
<path d="M15.1401 29.1512C14.0256 30.2656 13.0167 31.184 12.0898 31.9712L12.4586 32.3399C12.8007 32.682 13.3243 32.7644 13.7548 32.5429C14.3315 32.2457 15.2383 31.819 17.1634 30.7469L15.3294 28.9128C15.2569 28.992 15.2189 29.0726 15.1401 29.1512Z" fill="url(#paint1_linear_197_51984)"/>
<path d="M14.5456 23.4486C13.7411 22.6441 11.4786 23.3654 10.4157 24.4279C6.8602 27.9835 5.25435 30.5043 4.53332 31.9927C4.32661 32.4192 4.41272 32.9297 4.74786 33.2649C5.08359 33.6009 5.595 33.6861 6.02176 33.4794C7.47685 32.7729 9.96695 31.1746 13.5648 27.577C14.7335 26.4078 15.3101 24.2134 14.5465 23.4495L14.5456 23.4486Z" fill="url(#paint2_linear_197_51984)"/>
<path d="M3.47488 14.8222L0.326097 17.971C-0.0299204 18.3271 -0.102979 18.8782 0.149248 19.3148C0.395388 19.7456 0.91086 19.9651 1.4014 19.8337C3.10321 19.3774 4.60063 19.1846 5.60896 19.4432C7.04347 16.8928 8.58496 14.5451 10.2175 12.4125C9.27322 11.8071 6.15285 12.1443 3.47488 14.8222Z" fill="url(#paint3_linear_197_51984)"/>
<path d="M18.8431 37.8806C19.2719 38.0975 19.7912 38.0137 20.1306 37.6739L23.2797 34.5251C25.7176 32.0867 26.1467 28.9405 25.5935 27.9429C23.2151 29.7354 20.8056 31.2491 18.5576 32.5163C18.7127 33.3921 18.6095 34.2419 18.2427 36.7236C18.1711 37.204 18.4193 37.6687 18.8431 37.8806Z" fill="url(#paint4_linear_197_51984)"/>
<path d="M22.1015 11.1676C20.7995 12.47 20.7995 14.5884 22.1015 15.8907C23.4038 17.193 25.5225 17.193 26.8248 15.8907C28.1271 14.5884 28.1271 12.47 26.8248 11.1676C25.5225 9.86534 23.4038 9.86534 22.1015 11.1676Z" fill="url(#paint5_linear_197_51984)"/>
<path d="M37.9357 1.08618C37.8957 0.535624 37.4573 0.100459 36.9085 0.0592908C34.1743 -0.14655 31.4508 0.189753 28.7812 1.00616C28.9822 2.84017 29.9308 4.82494 31.5502 6.44442C33.1891 8.08303 35.2278 9.03135 37.0946 9.20878C37.8136 6.68911 38.1545 3.99056 37.9357 1.08618Z" fill="url(#paint6_linear_197_51984)"/>
<path d="M29.973 8.01886C28.1204 6.16629 26.9892 3.94436 26.6262 1.78101C19.941 4.52275 13.5414 10.5101 8.48438 18.9212L10.9968 21.4336C12.7134 20.7366 14.7973 20.5525 16.119 21.874C17.4425 23.1977 17.2549 25.2808 16.5583 26.9951L19.1533 29.5901C25.6248 25.6899 33.1592 19.5451 36.3631 11.3697C34.1469 11.0349 31.8557 9.90158 29.973 8.01886ZM28.3982 17.4652C26.2282 19.6352 22.6967 19.6352 20.5264 17.4652C18.356 15.2949 18.356 11.7631 20.5264 9.5931C22.6967 7.42308 26.2282 7.42308 28.3982 9.5931C30.5685 11.7634 30.5685 15.2949 28.3982 17.4652Z" fill="url(#paint7_linear_197_51984)"/>
</g>
<defs>
<linearGradient id="paint0_linear_197_51984" x1="5.42969" y1="25.9087" x2="10.1897" y2="22.4296" gradientUnits="userSpaceOnUse">
<stop stop-color="#43CEA2"/>
<stop offset="1" stop-color="#185A9D"/>
</linearGradient>
<linearGradient id="paint1_linear_197_51984" x1="12.0898" y1="32.6662" x2="15.679" y2="27.8147" gradientUnits="userSpaceOnUse">
<stop stop-color="#43CEA2"/>
<stop offset="1" stop-color="#185A9D"/>
</linearGradient>
<linearGradient id="paint2_linear_197_51984" x1="4.42188" y1="33.5911" x2="14.9085" y2="23.1204" gradientUnits="userSpaceOnUse">
<stop stop-color="#43CEA2"/>
<stop offset="1" stop-color="#185A9D"/>
</linearGradient>
<linearGradient id="paint3_linear_197_51984" x1="0" y1="19.8716" x2="7.42127" y2="10.0442" gradientUnits="userSpaceOnUse">
<stop stop-color="#43CEA2"/>
<stop offset="1" stop-color="#185A9D"/>
</linearGradient>
<linearGradient id="paint4_linear_197_51984" x1="18.2305" y1="38.0001" x2="27.8978" y2="30.7162" gradientUnits="userSpaceOnUse">
<stop stop-color="#43CEA2"/>
<stop offset="1" stop-color="#185A9D"/>
</linearGradient>
<linearGradient id="paint5_linear_197_51984" x1="21.125" y1="16.8674" x2="27.8015" y2="10.1908" gradientUnits="userSpaceOnUse">
<stop stop-color="#43CEA2"/>
<stop offset="1" stop-color="#185A9D"/>
</linearGradient>
<linearGradient id="paint6_linear_197_51984" x1="28.7812" y1="9.20878" x2="37.9898" y2="-0.0112433" gradientUnits="userSpaceOnUse">
<stop stop-color="#43CEA2"/>
<stop offset="1" stop-color="#185A9D"/>
</linearGradient>
<linearGradient id="paint7_linear_197_51984" x1="8.48438" y1="29.5901" x2="36.2934" y2="1.71151" gradientUnits="userSpaceOnUse">
<stop stop-color="#43CEA2"/>
<stop offset="1" stop-color="#185A9D"/>
</linearGradient>
<clipPath id="clip0_197_51984">
<rect width="38" height="38" fill="white"/>
</clipPath>
</defs>
</svg>
