<svg width="32" height="32" viewBox="0 0 32 32" fill="none" xmlns="http://www.w3.org/2000/svg">
<path d="M25.1693 17.6667V12.6667C25.1693 10.2355 24.2035 7.90394 22.4844 6.18485C20.7653 4.46577 18.4338 3.5 16.0026 3.5C13.5715 3.5 11.2399 4.46577 9.52079 6.18485C7.80171 7.90394 6.83594 10.2355 6.83594 12.6667V17.6667C6.83594 20.0978 7.80171 22.4294 9.52079 24.1485C11.2399 25.8676 13.5715 26.8333 16.0026 26.8333C18.4338 26.8333 20.7653 25.8676 22.4844 24.1485C24.2035 22.4294 25.1693 20.0978 25.1693 17.6667ZM12.9109 20.4083C12.9884 20.3302 13.0806 20.2682 13.1821 20.2259C13.2837 20.1836 13.3926 20.1618 13.5026 20.1618C13.6126 20.1618 13.7215 20.1836 13.8231 20.2259C13.9246 20.2682 14.0168 20.3302 14.0943 20.4083C14.3444 20.6598 14.6418 20.8593 14.9693 20.9955C15.2967 21.1317 15.6479 21.2018 16.0026 21.2018C16.3573 21.2018 16.7085 21.1317 17.036 20.9955C17.3635 20.8593 17.6608 20.6598 17.9109 20.4083C18.0679 20.2514 18.2807 20.1633 18.5026 20.1633C18.7245 20.1633 18.9373 20.2514 19.0943 20.4083C19.2512 20.5653 19.3393 20.7781 19.3393 21C19.3393 21.2219 19.2512 21.4347 19.0943 21.5917C16.2026 24.45 11.5443 21.775 12.9109 20.4083Z" fill="url(#paint0_linear_199_3)"/>
<path d="M29.3346 11H28.3846C27.973 8.00816 26.4921 5.26649 24.2157 3.28186C21.9393 1.29724 19.0214 0.203857 16.0013 0.203857C12.9813 0.203857 10.0633 1.29724 7.78692 3.28186C5.51053 5.26649 4.02962 8.00816 3.61797 11H2.66797C2.00493 11 1.36904 11.2634 0.900202 11.7323C0.431361 12.2011 0.167969 12.837 0.167969 13.5V18.5C0.167969 19.1631 0.431361 19.7989 0.900202 20.2678C1.36904 20.7366 2.00493 21 2.66797 21H5.16797C5.38898 21 5.60094 20.9122 5.75722 20.7559C5.9135 20.5997 6.0013 20.3877 6.0013 20.1667V11.8334C6.00387 11.6336 5.93461 11.4396 5.80613 11.2866C5.67764 11.1337 5.49849 11.032 5.3013 11C5.70476 8.45227 7.00407 6.13209 8.96551 4.45682C10.927 2.78154 13.4218 1.86112 16.0013 1.86112C18.5808 1.86112 21.0757 2.78154 23.0371 4.45682C24.9985 6.13209 26.2978 8.45227 26.7013 11C26.5041 11.032 26.325 11.1337 26.1965 11.2866C26.068 11.4396 25.9987 11.6336 26.0013 11.8334V20.1667C26.0013 20.3877 26.0891 20.5997 26.2454 20.7559C26.4017 20.9122 26.6136 21 26.8346 21C26.8353 23.1425 26.0854 25.2176 24.7153 26.8648C23.3452 28.5119 21.4414 29.6271 19.3346 30.0167C19.3713 29.7218 19.3448 29.4225 19.2568 29.1387C19.1687 28.8549 19.0213 28.5931 18.8242 28.3708C18.627 28.1484 18.3848 27.9706 18.1136 27.8492C17.8424 27.7278 17.5484 27.6656 17.2513 27.6667H15.5846C15.0321 27.6667 14.5022 27.8862 14.1115 28.2769C13.7208 28.6676 13.5013 29.1975 13.5013 29.75C13.5013 30.3026 13.7208 30.8325 14.1115 31.2232C14.5022 31.6139 15.0321 31.8334 15.5846 31.8334H17.668C20.5411 31.8334 23.2966 30.692 25.3283 28.6603C27.3599 26.6287 28.5013 23.8732 28.5013 21H29.3346C29.9977 21 30.6336 20.7366 31.1024 20.2678C31.5712 19.7989 31.8346 19.1631 31.8346 18.5V13.5C31.8346 12.837 31.5712 12.2011 31.1024 11.7323C30.6336 11.2634 29.9977 11 29.3346 11Z" fill="url(#paint1_linear_199_3)"/>
<defs>
<linearGradient id="paint0_linear_199_3" x1="6.83594" y1="26.8333" x2="29.5068" y2="9.0205" gradientUnits="userSpaceOnUse">
<stop stop-color="#43CEA2"/>
<stop offset="1" stop-color="#185A9D"/>
</linearGradient>
<linearGradient id="paint1_linear_199_3" x1="0.167969" y1="31.8334" x2="31.7974" y2="0.166709" gradientUnits="userSpaceOnUse">
<stop stop-color="#43CEA2"/>
<stop offset="1" stop-color="#185A9D"/>
</linearGradient>
</defs>
</svg>
