<svg xmlns="http://www.w3.org/2000/svg" width="13.847" height="13.819" viewBox="0 0 13.847 13.819"><g transform="translate(-0.002 -0.341)"><path d="M7.931,99.73H5.15a.223.223,0,0,0-.223.223v8.932a.223.223,0,0,0,.223.223H7.93a.223.223,0,0,0,.223-.223V99.953a.223.223,0,0,0-.222-.223Z" transform="translate(-4.707 -94.949)" fill="#272d3b"/><path d="M1.835.341A1.833,1.833,0,1,0,3.668,2.174,1.833,1.833,0,0,0,1.835.341Z" fill="#272d3b"/><path d="M111.728,94.761a3.266,3.266,0,0,0-2.443,1.026v-.58a.223.223,0,0,0-.223-.223H106.4a.223.223,0,0,0-.223.223v8.932a.223.223,0,0,0,.223.223h2.774a.223.223,0,0,0,.223-.223v-4.42c0-1.489.4-2.069,1.443-2.069,1.131,0,1.22.93,1.22,2.146v4.343a.223.223,0,0,0,.223.223h2.775a.223.223,0,0,0,.223-.223v-4.9C115.282,97.025,114.86,94.761,111.728,94.761Z" transform="translate(-101.432 -90.202)" fill="#272d3b"/></g></svg>