<?xml version="1.0" encoding="utf-8"?>
<!-- Generator: Adobe Illustrator 21.0.2, SVG Export Plug-In . SVG Version: 6.00 Build 0)  -->
<svg version="1.1" id="svg2" xmlns="http://www.w3.org/2000/svg" xmlns:xlink="http://www.w3.org/1999/xlink" x="0px" y="0px"
	 viewBox="0 0 123.1 100" style="enable-background:new 0 0 123.1 100;" xml:space="preserve">
<style type="text/css">
	.st0{fill:#272D3B;}
</style>
<path id="rect2989" class="st0" d="M84.5,0C70.9,0.3,60,11.5,60,25.2c0,2,0.2,3.9,0.6,5.8c-21-1.1-39.6-11.1-52-26.4
	c-2.2,3.7-3.4,8.1-3.4,12.7c0,8.8,4.5,16.5,11.2,21c-4.1-0.1-8-1.3-11.4-3.2c0,0.1,0,0.2,0,0.3c0,12.2,8.7,22.4,20.3,24.7
	c-2.1,0.6-4.3,0.9-6.7,0.9c-1.6,0-3.2-0.2-4.7-0.5C17,70.7,26.3,78,37.4,78.2C28.7,85,17.9,89,6,89c-2,0-4.1-0.1-6-0.3
	C11.2,95.8,24.4,100,38.7,100c46.4,0,71.8-38.5,71.8-71.8c0-1.1,0-2.2-0.1-3.3c4.9-3.6,9.2-8,12.6-13.1c-4.5,2-9.4,3.4-14.5,4
	c5.2-3.1,9.2-8.1,11.1-14c-4.9,2.9-10.3,5-16,6.1C99,3.1,92.5,0,85.2,0C85,0,84.8,0,84.5,0L84.5,0z"/>
</svg>
